$ DEMON TORRENTS $    #######   SERIOUS       UPLOADING!!!!!       ########















....ALL THE FILES UPLOADED ARE NOT CREATED BY THE UPLOADER....










UPLOADER : DEMON~THE DARK MASTER(TDM)






Description	






TNA.Impact.02.17.2011.HDTV.XviD-XS 

General Information 
Format : AVI 
Format/Info : Audio Video Interleave 
File size : 760 MiB 
Duration : 1h 25mn 
Overall bit rate : 1 237 Kbps 
Writing application : Lavf51.12.1 
Video 
ID : 0 
Format : MPEG-4 Visual 
Format profile : Simple@L1 
Format settings, BVOP : No 
Format settings, QPel : No 
Format settings, GMC : No warppoints 
Format settings, Matrix : Default (H.263) 
Codec ID : DX50 
Codec ID/Hint : DivX 5 
Duration : 1h 25mn 
Bit rate : 1 095 Kbps 
Width : 624 pixels 
Height : 352 pixels 
Display aspect ratio : 16:9 
Frame rate : 29.970 fps 
Color space : YUV 
Chroma subsampling : 4:2:0 
Bit depth : 8 bits 
Scan type : Progressive 
Bits/(Pixel*Frame) : 0.166 
Stream size : 673 MiB (89%) 
Writing library : Lavc51.40.4 
Audio 
ID : 1 
Format : MPEG Audio 
Format version : Version 1 
Format profile : Layer 3 
Mode : Joint stereo 
Mode extension : MS Stereo 
Codec ID : 55 
Codec ID/Hint : MP3 
Duration : 1h 25mn 
Bit rate mode : Constant 
Bit rate : 128 Kbps 
Channel(s) : 2 channels 
Sampling rate : 48.0 KHz 
Stream size : 78.7 MiB (10%) 
Alignment : Aligned on interleaves 
Interleave, duration : 24 ms (0.72 video frame)

















<<<<<<<    mastitorrents  >>>>>>
















****check out my other releases****
     
http://thepiratebay.org/user/tdkdemon/




                  














@@@@@  SEED    SEED     SEED        AFTER     "YOU"     DOWNLOAD     !!!!!!!@@@@@









